<svg xmlns="http://www.w3.org/2000/svg" viewBox="0 0 128 128">
  <!-- Inactive Microphone Icon (Gray) -->
  <g id="inactive">
    <circle cx="64" cy="64" r="64" fill="#f0f0f0"/>
    <path d="M64 32c-8.8 0-16 7.2-16 16v16c0 8.8 7.2 16 16 16s16-7.2 16-16V48c0-8.8-7.2-16-16-16zm0 4c6.6 0 12 5.4 12 12v16c0 6.6-5.4 12-12 12s-12-5.4-12-12V48c0-6.6 5.4-12 12-12z" fill="#888888"/>
    <path d="M38 64c0 13.3 10.5 24.1 24 24.9V96h-8c-1.1 0-2 0.9-2 2s0.9 2 2 2h20c1.1 0 2-0.9 2-2s-0.9-2-2-2h-8v-7.1c13.5-0.8 24-11.6 24-24.9h-4c0 11.6-9.4 21-21 21s-21-9.4-21-21h-6z" fill="#888888"/>
  </g>
</svg>
